<?xml version="1.0" standalone="no"?><!DOCTYPE svg PUBLIC "-//W3C//DTD SVG 1.1//EN" "http://www.w3.org/Graphics/SVG/1.1/DTD/svg11.dtd"><svg class="icon" width="200px" height="200.00px" viewBox="0 0 1024 1024" version="1.1" xmlns="http://www.w3.org/2000/svg"><path d="M512 0c282.784 0 512 229.216 512 512s-229.216 512-512 512S0 794.784 0 512 229.216 0 512 0z" fill="#FF5F68" /><path d="M512 64c247.424 0 448 200.576 448 448s-200.576 448-448 448S64 759.424 64 512 264.576 64 512 64z m80 224h-160a32 32 0 0 0 0 64h32v320h-32a32 32 0 0 0 0 64h160a32 32 0 0 0 0-64h-32V352h32a32 32 0 0 0 0-64z" fill="#ffffff" /></svg>