<?xml version="1.0" standalone="no"?><!DOCTYPE svg PUBLIC "-//W3C//DTD SVG 1.1//EN" "http://www.w3.org/Graphics/SVG/1.1/DTD/svg11.dtd"><svg class="icon" width="200px" height="200.00px" viewBox="0 0 1024 1024" version="1.1" xmlns="http://www.w3.org/2000/svg"><path d="M42.929231 256.551385C42.929231 137.137231 139.697231 39.384615 259.111385 39.384615a216.182154 216.182154 0 0 1 216.182153 216.182154v180.696616a39.384615 39.384615 0 0 1-39.384615 39.384615h-174.867692c-120.438154 0-218.112-98.658462-218.112-219.096615zM42.929231 767.448615C42.929231 886.862769 139.697231 984.615385 259.111385 984.615385a216.182154 216.182154 0 0 0 216.182153-216.182154v-180.696616a39.384615 39.384615 0 0 0-39.384615-39.384615h-174.867692c-120.438154 0-218.112 98.658462-218.112 219.096615zM979.731692 256.551385c0-119.414154-96.807385-217.166769-216.221538-217.16677a216.221538 216.221538 0 0 0-216.142769 216.182154v180.696616a39.384615 39.384615 0 0 0 39.384615 39.384615h174.867692c120.438154 0 218.112-98.658462 218.112-219.096615zM979.731692 767.448615c0 119.414154-96.807385 217.166769-216.221538 217.16677a216.221538 216.221538 0 0 1-216.142769-216.182154v-180.696616a39.384615 39.384615 0 0 1 39.384615-39.384615h174.867692c120.438154 0 218.112 98.658462 218.112 219.096615z" /></svg>